<svg xmlns="http://www.w3.org/2000/svg" xmlns:xlink="http://www.w3.org/1999/xlink" width="500" zoomAndPan="magnify" viewBox="0 0 375 374.999991" height="500" preserveAspectRatio="xMidYMid meet" version="1.0"><defs><filter x="0%" y="0%" width="100%" height="100%" id="b96752f881"><feColorMatrix values="0 0 0 0 1 0 0 0 0 1 0 0 0 0 1 0 0 0 1 0" color-interpolation-filters="sRGB"/></filter><g/><clipPath id="190c12b3f6"><path d="M 83 155.230469 L 292 155.230469 L 292 219.730469 L 83 219.730469 Z M 83 155.230469 " clip-rule="nonzero"/></clipPath><clipPath id="9497f42668"><path d="M 148.066406 217 L 298 217 L 298 243 L 148.066406 243 Z M 148.066406 217 " clip-rule="nonzero"/></clipPath><mask id="f1b46b2604"><g filter="url(#b96752f881)"><rect x="-37.5" width="450" fill="#000000" y="-37.499999" height="449.999989" fill-opacity="0.988"/></g></mask><clipPath id="731e25064f"><path d="M 0.078125 0.199219 L 149 0.199219 L 149 25.640625 L 0.078125 25.640625 Z M 0.078125 0.199219 " clip-rule="nonzero"/></clipPath><clipPath id="7f401465df"><rect x="0" width="150" y="0" height="26"/></clipPath></defs><g clip-path="url(#190c12b3f6)"><path fill="#bad4c0" d="M 289.578125 217.066406 C 285.066406 217.066406 280.554688 217.066406 276.042969 217.066406 C 264.890625 217.066406 253.742188 217.066406 242.589844 217.066406 C 228.375 217.066406 214.164062 217.066406 199.953125 217.066406 C 186.261719 217.066406 172.570312 217.066406 158.875 217.066406 C 149.28125 217.066406 139.6875 217.066406 130.09375 217.066406 C 128.253906 217.066406 126.414062 217.066406 124.574219 217.066406 C 124.574219 209.316406 124.574219 201.570312 124.574219 193.820312 C 124.574219 193.222656 123.355469 193.136719 123.007812 193.132812 C 117.769531 193.105469 112.53125 193.078125 107.296875 193.050781 C 106.167969 193.042969 103.550781 193.53125 103.550781 195.050781 C 103.542969 202.390625 103.539062 209.726562 103.53125 217.066406 C 101.070312 217.066406 98.605469 217.066406 96.144531 217.066406 C 96.144531 206.480469 96.144531 195.894531 96.144531 185.308594 C 96.144531 184.40625 96.144531 183.503906 96.144531 182.601562 C 96.144531 182.003906 94.929688 181.914062 94.578125 181.914062 C 93.222656 181.914062 91.863281 181.914062 90.503906 181.914062 C 97.859375 174.773438 105.214844 167.632812 112.566406 160.496094 C 112.722656 160.347656 112.875 160.195312 113.027344 160.046875 C 118.121094 164.453125 123.214844 168.863281 128.308594 173.269531 C 129.46875 174.273438 133.445312 173.464844 133.445312 171.664062 C 133.445312 170.183594 133.445312 168.703125 133.445312 167.222656 C 134.019531 167.222656 134.59375 167.222656 135.164062 167.222656 C 135.164062 170.59375 135.164062 173.960938 135.164062 177.332031 C 135.164062 177.757812 135.34375 177.960938 135.632812 178.257812 C 136.292969 178.941406 136.953125 179.625 137.613281 180.304688 C 138.128906 180.835938 138.644531 181.367188 139.15625 181.898438 C 138.828125 181.898438 138.496094 181.898438 138.164062 181.894531 C 136.992188 181.894531 135.414062 182.253906 134.636719 183.214844 C 133.851562 184.183594 135.257812 184.582031 135.984375 184.585938 C 138.253906 184.589844 140.519531 184.597656 142.785156 184.601562 C 143.421875 184.605469 147.664062 183.660156 146.359375 182.3125 C 145.148438 181.0625 143.9375 179.816406 142.730469 178.566406 C 142.042969 177.859375 141.359375 177.152344 140.671875 176.441406 C 140.613281 176.386719 140.558594 176.324219 140.5 176.265625 C 140.507812 176.25 140.476562 176.144531 140.476562 175.929688 C 140.476562 172.359375 140.476562 168.789062 140.476562 165.222656 C 140.476562 164.625 139.261719 164.53125 138.910156 164.53125 C 136.566406 164.53125 134.222656 164.53125 131.878906 164.53125 C 130.753906 164.53125 128.136719 165.011719 128.136719 166.535156 C 128.136719 166.667969 128.136719 166.800781 128.136719 166.929688 C 124.054688 163.398438 119.972656 159.871094 115.894531 156.339844 C 114.605469 155.222656 112 156.261719 110.96875 157.261719 C 103.144531 164.855469 95.320312 172.453125 87.496094 180.050781 C 86.402344 181.109375 85.308594 182.171875 84.214844 183.234375 C 83.285156 184.136719 84.964844 184.601562 85.566406 184.601562 C 87.320312 184.601562 89.078125 184.601562 90.835938 184.601562 C 90.835938 195.191406 90.835938 205.777344 90.835938 216.363281 C 90.835938 217.265625 90.835938 218.164062 90.835938 219.070312 C 90.835938 219.664062 92.050781 219.757812 92.402344 219.757812 C 96.632812 219.757812 100.863281 219.757812 105.09375 219.757812 C 106.222656 219.757812 108.835938 219.277344 108.839844 217.753906 C 108.847656 210.421875 108.851562 203.089844 108.859375 195.757812 C 112.328125 195.777344 115.792969 195.796875 119.261719 195.816406 C 119.261719 203.566406 119.261719 211.316406 119.261719 219.070312 C 119.261719 219.664062 120.476562 219.757812 120.828125 219.757812 C 125.339844 219.757812 129.851562 219.757812 134.367188 219.757812 C 145.515625 219.757812 156.667969 219.757812 167.820312 219.757812 C 182.03125 219.757812 196.242188 219.757812 210.453125 219.757812 C 224.148438 219.757812 237.839844 219.757812 251.53125 219.757812 C 261.125 219.757812 270.722656 219.757812 280.316406 219.757812 C 282.675781 219.757812 285.039062 219.757812 287.402344 219.757812 C 288.578125 219.757812 290.148438 219.398438 290.929688 218.4375 C 291.714844 217.46875 290.308594 217.066406 289.578125 217.066406 " fill-opacity="1" fill-rule="nonzero"/></g><g clip-path="url(#9497f42668)"><g mask="url(#f1b46b2604)"><g transform="matrix(1, 0, 0, 1, 148, 217)"><g clip-path="url(#7f401465df)"><g clip-path="url(#731e25064f)"><path fill="#bad4c0" d="M 148.597656 7.496094 C 147.351562 2.144531 141.511719 -1.203125 137.179688 1.980469 C 135.761719 3.03125 134.90625 5.054688 135.3125 6.933594 C 135.0625 3.316406 137.261719 1.28125 140.394531 1.617188 C 145.632812 2.226562 148.972656 10.070312 145.683594 14.859375 C 141.527344 22.800781 122.355469 20.097656 114.550781 19.21875 C 100.664062 17.3125 88.136719 12.375 74.28125 9.207031 C 58.710938 5.671875 42.410156 4.191406 26.765625 8 C 19.75 9.734375 0.796875 15.8125 0.519531 25.179688 C 1.15625 16.40625 16.324219 12.382812 22.644531 10.917969 C 39.488281 7.292969 56.777344 10.492188 73.320312 14.542969 C 82.988281 17.019531 93.546875 20.8125 103.914062 22.996094 C 114.496094 24.871094 132.421875 26.703125 141.691406 20.226562 C 145.144531 17.441406 149.65625 12.726562 148.597656 7.496094 Z M 148.597656 7.496094 " fill-opacity="1" fill-rule="nonzero"/></g></g></g></g></g><g fill="#439158" fill-opacity="1"><g transform="translate(142.316001, 212.776329)"><g><path d="M 11.40625 0 L 11.40625 -10.125 L 8.375 -10.125 L 8.375 0 L 1.515625 0 L 1.515625 -26.171875 L 8.375 -26.171875 L 8.375 -16.203125 L 11.40625 -16.203125 L 11.40625 -26.171875 L 18.265625 -26.171875 L 18.265625 0 Z M 11.40625 0 "/></g></g></g><g fill="#439158" fill-opacity="1"><g transform="translate(162.863074, 212.776329)"><g><path d="M 12.75 0 L 12.140625 -4.453125 L 7.375 -4.453125 L 6.765625 0 L 0.03125 0 L 4.828125 -26.171875 L 14.84375 -26.171875 L 19.625 0 Z M 9.890625 -20.125 L 9.625 -20.125 L 8.21875 -9.890625 L 11.296875 -9.890625 Z M 9.890625 -20.125 "/></g></g></g><g fill="#439158" fill-opacity="1"><g transform="translate(183.296006, 212.776329)"><g><path d="M 1.515625 -26.171875 L 11.296875 -26.171875 C 15.535156 -26.171875 17.65625 -23.976562 17.65625 -19.59375 C 17.65625 -17.71875 17.367188 -16.300781 16.796875 -15.34375 C 16.222656 -14.394531 15.34375 -13.757812 14.15625 -13.4375 L 14.15625 -13.28125 C 15.425781 -12.945312 16.359375 -12.335938 16.953125 -11.453125 C 17.546875 -10.566406 17.84375 -9.09375 17.84375 -7.03125 C 17.84375 -4.65625 17.316406 -2.890625 16.265625 -1.734375 C 15.210938 -0.578125 13.554688 0 11.296875 0 L 1.515625 0 Z M 9.328125 -15.796875 C 9.859375 -15.796875 10.226562 -15.84375 10.4375 -15.9375 C 10.65625 -16.039062 10.796875 -16.242188 10.859375 -16.546875 C 10.921875 -16.847656 10.953125 -17.394531 10.953125 -18.1875 C 10.953125 -19.019531 10.921875 -19.585938 10.859375 -19.890625 C 10.796875 -20.203125 10.660156 -20.398438 10.453125 -20.484375 C 10.253906 -20.578125 9.878906 -20.625 9.328125 -20.625 L 8.25 -20.625 L 8.25 -15.796875 Z M 9.328125 -5.5625 C 9.878906 -5.5625 10.253906 -5.601562 10.453125 -5.6875 C 10.660156 -5.78125 10.796875 -5.984375 10.859375 -6.296875 C 10.921875 -6.609375 10.953125 -7.210938 10.953125 -8.109375 C 10.953125 -8.941406 10.914062 -9.519531 10.84375 -9.84375 C 10.769531 -10.175781 10.628906 -10.394531 10.421875 -10.5 C 10.222656 -10.601562 9.859375 -10.65625 9.328125 -10.65625 L 8.25 -10.65625 L 8.25 -5.5625 Z M 9.328125 -5.5625 "/></g></g></g><g fill="#439158" fill-opacity="1"><g transform="translate(202.777682, 212.776329)"><g><path d="M 1.515625 0 L 1.515625 -26.171875 L 8.375 -26.171875 L 8.375 0 Z M 1.515625 0 "/></g></g></g><g fill="#439158" fill-opacity="1"><g transform="translate(213.431728, 212.776329)"><g><path d="M 4.796875 0 L 4.796875 -20.359375 L 0.265625 -20.359375 L 0.265625 -26.171875 L 16.203125 -26.171875 L 16.203125 -20.359375 L 11.6875 -20.359375 L 11.6875 0 Z M 4.796875 0 "/></g></g></g><g fill="#439158" fill-opacity="1"><g transform="translate(230.66845, 212.776329)"><g><path d="M 12.75 0 L 12.140625 -4.453125 L 7.375 -4.453125 L 6.765625 0 L 0.03125 0 L 4.828125 -26.171875 L 14.84375 -26.171875 L 19.625 0 Z M 9.890625 -20.125 L 9.625 -20.125 L 8.21875 -9.890625 L 11.296875 -9.890625 Z M 9.890625 -20.125 "/></g></g></g><g fill="#439158" fill-opacity="1"><g transform="translate(251.101381, 212.776329)"><g><path d="M 1.515625 -26.171875 L 10.953125 -26.171875 C 12.878906 -26.171875 14.332031 -25.847656 15.3125 -25.203125 C 16.289062 -24.554688 16.953125 -23.59375 17.296875 -22.3125 C 17.640625 -21.03125 17.8125 -19.257812 17.8125 -17 C 17.8125 -14.875 17.65625 -13.175781 17.34375 -11.90625 C 17.039062 -10.632812 16.394531 -9.640625 15.40625 -8.921875 C 14.414062 -8.203125 12.929688 -7.84375 10.953125 -7.84375 L 8.375 -7.84375 L 8.375 0 L 1.515625 0 Z M 9.171875 -13.4375 C 9.753906 -13.4375 10.148438 -13.5 10.359375 -13.625 C 10.578125 -13.75 10.722656 -14.046875 10.796875 -14.515625 C 10.878906 -14.984375 10.921875 -15.8125 10.921875 -17 C 10.921875 -18.21875 10.878906 -19.0625 10.796875 -19.53125 C 10.722656 -20 10.578125 -20.289062 10.359375 -20.40625 C 10.148438 -20.519531 9.753906 -20.578125 9.171875 -20.578125 L 8.375 -20.578125 L 8.375 -13.4375 Z M 9.171875 -13.4375 "/></g></g></g><g fill="#439158" fill-opacity="1"><g transform="translate(270.240596, 212.776329)"><g><path d="M 1.515625 -26.171875 L 10.953125 -26.171875 C 12.878906 -26.171875 14.332031 -25.847656 15.3125 -25.203125 C 16.289062 -24.554688 16.953125 -23.59375 17.296875 -22.3125 C 17.640625 -21.03125 17.8125 -19.257812 17.8125 -17 C 17.8125 -14.875 17.65625 -13.175781 17.34375 -11.90625 C 17.039062 -10.632812 16.394531 -9.640625 15.40625 -8.921875 C 14.414062 -8.203125 12.929688 -7.84375 10.953125 -7.84375 L 8.375 -7.84375 L 8.375 0 L 1.515625 0 Z M 9.171875 -13.4375 C 9.753906 -13.4375 10.148438 -13.5 10.359375 -13.625 C 10.578125 -13.75 10.722656 -14.046875 10.796875 -14.515625 C 10.878906 -14.984375 10.921875 -15.8125 10.921875 -17 C 10.921875 -18.21875 10.878906 -19.0625 10.796875 -19.53125 C 10.722656 -20 10.578125 -20.289062 10.359375 -20.40625 C 10.148438 -20.519531 9.753906 -20.578125 9.171875 -20.578125 L 8.375 -20.578125 L 8.375 -13.4375 Z M 9.171875 -13.4375 "/></g></g></g></svg>